<?xml version="1.0" standalone="no"?>
<!DOCTYPE svg PUBLIC "-//W3C//DTD SVG 20010904//EN"
 "http://www.w3.org/TR/2001/REC-SVG-20010904/DTD/svg10.dtd">
<svg version="1.0" xmlns="http://www.w3.org/2000/svg"
 width="100.000000pt" height="100.000000pt" viewBox="0 0 100.000000 100.000000"
 preserveAspectRatio="xMidYMid meet">
<metadata>
Created by potrace 1.13, written by Peter Selinger 2001-2015
</metadata>
<g transform="translate(0.000000,100.000000) scale(0.100000,-0.100000)"
fill="#000000" stroke="none">
<path d="M445 986 c-48 -21 -58 -40 -60 -119 -2 -60 2 -80 23 -119 14 -25 22
-53 19 -62 -3 -8 -24 -24 -45 -35 -22 -11 -51 -34 -66 -51 -25 -31 -46 -33
-46 -5 0 8 11 34 24 57 19 35 23 56 21 115 -1 43 -7 79 -15 88 -20 24 -65 45
-95 45 -39 0 -105 -38 -115 -66 -16 -40 -5 -144 20 -193 26 -53 22 -65 -40
-101 -63 -37 -69 -56 -70 -206 0 -127 1 -131 29 -176 16 -25 44 -57 63 -71 44
-34 140 -78 174 -80 23 -2 29 3 34 29 10 45 16 52 73 80 29 15 60 33 70 42 23
20 22 73 -3 124 -14 29 -20 62 -20 110 0 55 4 72 20 88 25 25 68 26 109 3 34
-20 45 -53 33 -98 -5 -16 -7 -36 -5 -43 3 -7 -5 -33 -16 -57 -26 -55 -27 -106
-3 -128 9 -8 37 -24 62 -35 53 -23 70 -41 79 -85 6 -27 11 -32 35 -30 34 2
130 46 174 80 19 14 47 46 63 71 28 45 29 49 29 176 -1 150 -7 169 -70 206
-62 36 -66 48 -40 101 25 49 36 153 20 193 -10 28 -76 66 -115 66 -30 0 -75
-21 -95 -45 -8 -9 -14 -45 -15 -88 -2 -59 2 -80 21 -115 13 -23 24 -49 24 -57
0 -28 -21 -26 -46 5 -15 17 -44 40 -66 51 -21 11 -41 26 -44 33 -3 8 4 34 16
58 25 48 36 152 20 192 -10 28 -76 66 -112 66 -13 -1 -37 -7 -53 -14z m103
-46 c31 -19 32 -21 28 -78 -2 -32 -13 -78 -25 -102 -37 -77 -27 -105 54 -148
32 -18 55 -38 65 -59 18 -39 42 -42 75 -8 31 30 31 58 4 116 -19 39 -23 65
-20 148 2 50 62 66 119 31 31 -19 32 -21 28 -78 -2 -32 -13 -78 -25 -102 -35
-72 -25 -107 39 -140 64 -33 70 -49 70 -183 0 -82 -4 -126 -14 -145 -20 -37
-73 -86 -121 -110 -73 -36 -79 -36 -98 3 -13 27 -32 43 -82 67 -74 37 -78 49
-46 121 25 56 36 164 18 197 -16 31 -83 70 -120 70 -45 0 -94 -28 -108 -62
-19 -45 -12 -157 11 -206 34 -70 29 -83 -45 -120 -50 -24 -69 -40 -82 -67 -19
-39 -25 -39 -98 -3 -48 24 -101 73 -121 110 -10 19 -14 63 -14 151 0 137 3
143 77 181 57 29 66 66 32 136 -12 24 -23 70 -25 102 -4 57 -3 59 28 78 41 25
80 25 102 1 26 -29 25 -125 -2 -180 -28 -58 -28 -86 3 -116 33 -34 57 -31 75
8 10 21 33 41 65 59 81 44 91 71 53 149 -29 61 -28 156 3 181 28 23 56 23 97
-2z"/>
</g>
</svg>
