<?xml version="1.0" standalone="no"?>
<!DOCTYPE svg PUBLIC "-//W3C//DTD SVG 20010904//EN"
 "http://www.w3.org/TR/2001/REC-SVG-20010904/DTD/svg10.dtd">
<svg version="1.0" xmlns="http://www.w3.org/2000/svg"
 width="200.000000pt" height="200.000000pt" viewBox="0 0 200.000000 200.000000"
 preserveAspectRatio="xMidYMid meet">
<metadata>
Created by potrace 1.13, written by Peter Selinger 2001-2015
</metadata>
<g transform="translate(0.000000,200.000000) scale(0.100000,-0.100000)"
fill="#000000" stroke="none">
<path d="M955 1953 c-10 -26 -31 -72 -47 -100 -35 -63 -49 -66 -153 -27 -96
36 -97 36 -120 19 -19 -15 -19 -16 -1 -63 22 -56 36 -106 43 -148 5 -30 3 -32
-94 -80 -85 -42 -98 -52 -98 -74 0 -20 9 -29 42 -45 24 -11 43 -23 43 -27 0
-5 -59 -8 -130 -8 -170 0 -197 -13 -221 -105 -4 -16 -13 -48 -19 -70 -6 -22
-15 -56 -20 -75 -5 -19 -13 -51 -19 -70 -5 -19 -19 -71 -31 -115 -12 -44 -25
-93 -30 -110 -13 -47 -47 -173 -65 -245 -9 -36 -20 -73 -26 -82 -16 -30 -11
-166 7 -194 35 -53 44 -54 429 -54 348 0 355 0 355 -20 0 -18 -7 -20 -60 -20
-57 0 -62 -2 -100 -40 -39 -39 -40 -42 -40 -108 0 -40 5 -73 12 -80 17 -17
759 -17 776 0 7 7 12 40 12 80 0 66 -1 69 -40 108 -38 38 -43 40 -100 40 -53
0 -60 2 -60 20 0 20 7 20 355 20 385 0 394 1 429 54 18 28 23 164 7 194 -6 9
-17 46 -26 82 -9 36 -20 79 -25 95 -5 17 -18 65 -29 108 -12 42 -30 112 -42
155 -11 42 -24 91 -29 107 -8 27 -38 137 -55 205 -29 107 -53 120 -225 120
-71 0 -130 3 -130 8 0 4 19 16 43 27 33 16 42 25 42 45 0 21 -12 31 -82 65
-114 55 -120 63 -105 122 7 27 22 72 33 100 37 91 10 110 -91 64 -118 -53
-135 -45 -206 87 -32 62 -45 78 -65 80 -23 3 -28 -3 -44 -45z m86 -154 c44
-69 66 -82 131 -77 29 2 60 6 68 9 10 3 14 -2 12 -16 -13 -90 -13 -108 -2
-134 7 -17 33 -44 61 -62 45 -28 65 -59 38 -59 -6 0 -30 -13 -54 -30 -24 -16
-48 -30 -54 -30 -6 0 -8 19 -4 49 9 77 -13 137 -72 196 -32 32 -65 55 -91 63
-94 28 -169 8 -239 -63 -57 -56 -78 -109 -74 -186 2 -27 0 -51 -3 -55 -4 -3
-26 7 -50 23 -24 16 -51 32 -60 36 -27 10 -21 24 17 43 20 9 49 29 66 45 28
26 30 33 26 76 -3 27 -9 63 -13 82 -6 32 -6 34 17 27 13 -4 50 -10 82 -13 57
-5 58 -5 97 36 22 23 40 48 40 54 0 11 19 37 26 37 1 0 17 -23 35 -51z m20
-173 c79 -33 120 -129 87 -201 l-11 -25 -137 0 -137 0 -11 25 c-56 122 82 254
209 201z m626 -318 c11 -14 13 -20 44 -138 11 -41 25 -91 30 -110 6 -19 14
-51 19 -70 5 -19 13 -51 19 -70 5 -19 19 -71 31 -115 12 -44 25 -93 30 -110
44 -153 54 -199 54 -260 l1 -70 -904 -3 c-688 -1 -907 1 -918 10 -26 21 -12
116 47 323 5 17 18 65 29 108 12 42 30 112 42 155 11 42 24 91 29 107 5 17 18
64 29 105 31 118 33 124 44 138 7 9 157 12 687 12 530 0 680 -3 687 -12z
m-567 -1076 c0 -26 5 -53 12 -60 7 -7 42 -12 88 -12 84 0 100 -9 100 -52 l0
-28 -320 0 -320 0 0 28 c0 43 16 52 100 52 46 0 81 5 88 12 7 7 12 34 12 60
l0 48 120 0 120 0 0 -48z"/>
<path d="M373 1228 c-6 -7 -13 -26 -17 -43 -4 -16 -11 -46 -15 -65 -5 -19 -14
-56 -20 -82 -6 -27 -16 -69 -22 -95 -6 -27 -15 -64 -19 -83 -5 -19 -14 -57
-20 -85 -7 -27 -16 -66 -20 -85 -28 -114 -33 -138 -34 -170 l-1 -35 786 -3
c698 -2 788 0 799 13 13 15 5 76 -20 155 -4 14 -13 52 -20 85 -7 33 -16 71
-20 85 -4 14 -13 52 -20 85 -7 33 -16 71 -20 85 -4 14 -13 50 -19 80 -22 100
-34 145 -44 158 -14 18 -1240 18 -1254 0z m279 -86 c-1 -7 -7 -56 -12 -108 -6
-53 -13 -100 -16 -105 -3 -5 -59 -9 -125 -9 -133 0 -128 -3 -108 74 17 64 27
109 34 139 l6 28 112 -3 c85 -2 111 -6 109 -16z m308 -102 l0 -120 -119 0
c-66 0 -122 3 -124 8 -6 8 10 187 18 214 6 16 18 18 116 18 l109 0 0 -120z
m305 102 c8 -27 24 -206 18 -214 -2 -5 -58 -8 -124 -8 l-119 0 0 120 0 120
109 0 c98 0 110 -2 116 -18z m310 -9 c6 -30 17 -75 34 -139 21 -78 26 -75
-111 -72 l-123 3 -7 50 c-4 28 -11 78 -15 113 -5 34 -7 65 -4 67 2 3 53 5 112
5 l109 0 5 -27z m-962 -323 c-5 -65 -24 -217 -29 -232 -5 -16 -21 -18 -146
-18 l-141 0 6 43 c4 23 11 60 16 82 6 22 15 62 20 88 6 27 13 53 17 58 3 6 59
8 132 7 l127 -3 -2 -25z m347 -110 l0 -141 -147 3 c-126 3 -147 5 -145 18 2 8
8 53 12 100 4 47 11 102 15 123 l7 37 129 0 129 0 0 -140z m345 103 c4 -21 11
-76 15 -123 4 -47 10 -92 12 -100 2 -13 -19 -15 -144 -18 l-148 -3 0 141 0
140 129 0 129 0 7 -37z m340 28 c3 -5 10 -31 16 -58 5 -26 14 -66 20 -88 5
-22 12 -59 16 -82 l6 -43 -141 0 c-163 0 -147 -14 -162 134 -5 54 -13 102 -16
107 -3 6 -3 16 0 24 4 12 30 15 130 15 69 0 127 -4 131 -9z"/>
</g>
</svg>
