<?xml version="1.0" standalone="no"?>
<!DOCTYPE svg PUBLIC "-//W3C//DTD SVG 20010904//EN"
 "http://www.w3.org/TR/2001/REC-SVG-20010904/DTD/svg10.dtd">
<svg version="1.0" xmlns="http://www.w3.org/2000/svg"
 width="100.000000pt" height="100.000000pt" viewBox="0 0 100.000000 100.000000"
 preserveAspectRatio="xMidYMid meet">
<metadata>
Created by potrace 1.10, written by Peter Selinger 2001-2011
</metadata>
<g transform="translate(0.000000,100.000000) scale(0.100000,-0.100000)"
fill="#000000" stroke="none">
<path d="M418 989 c-202 -23 -384 -208 -407 -414 -29 -257 101 -472 334 -550
78 -26 243 -23 320 5 178 67 305 221 324 395 19 165 -22 301 -122 411 -113
124 -262 175 -449 153z m197 -44 c82 -22 144 -58 208 -122 119 -119 163 -279
122 -438 -16 -58 -57 -139 -95 -183 l-19 -23 -63 29 c-35 16 -72 33 -84 36
-11 3 -30 15 -42 27 -38 35 -27 91 45 223 12 22 13 37 6 55 -5 14 -6 37 -2 51
15 53 10 144 -10 176 -27 45 -127 94 -189 94 -131 -1 -207 -96 -185 -232 7
-40 7 -70 1 -81 -13 -24 -1 -71 23 -93 10 -9 19 -25 19 -34 0 -10 10 -29 21
-44 18 -23 20 -34 13 -68 -10 -44 -17 -49 -147 -108 l-68 -31 -19 23 c-156
184 -143 452 30 625 116 115 277 159 435 118z m-55 -130 c7 -8 19 -15 27 -15
8 0 28 -13 44 -29 25 -25 29 -37 29 -83 0 -29 -4 -69 -10 -87 -7 -24 -6 -39 1
-48 15 -17 3 -63 -16 -63 -9 0 -15 -9 -15 -22 0 -13 -9 -38 -20 -56 -14 -22
-20 -50 -20 -87 0 -49 3 -56 33 -80 18 -15 66 -40 105 -57 40 -17 71 -35 69
-42 -2 -6 -43 -31 -93 -56 -89 -45 -89 -45 -194 -44 -84 0 -115 4 -157 22 -58
24 -133 70 -133 82 0 4 36 22 80 40 86 35 129 67 131 100 5 73 3 88 -18 119
-13 19 -23 44 -23 57 0 14 -6 24 -14 24 -18 0 -30 48 -16 65 7 9 7 28 -1 65
-20 95 4 169 64 195 44 19 131 19 147 0z"/>
</g>
</svg>
