<?xml version="1.0" standalone="no"?>
<!DOCTYPE svg PUBLIC "-//W3C//DTD SVG 20010904//EN"
 "http://www.w3.org/TR/2001/REC-SVG-20010904/DTD/svg10.dtd">
<svg version="1.0" xmlns="http://www.w3.org/2000/svg"
 width="100.000000pt" height="100.000000pt" viewBox="0 0 100.000000 100.000000"
 preserveAspectRatio="xMidYMid meet">
<metadata>
Created by potrace 1.13, written by Peter Selinger 2001-2015
</metadata>
<g transform="translate(0.000000,100.000000) scale(0.100000,-0.100000)"
fill="#000000" stroke="none">
<path d="M280 807 l-215 -113 0 -45 c0 -41 2 -44 28 -47 21 -3 27 -9 27 -27 0
-13 5 -27 10 -30 6 -4 10 -67 10 -155 l0 -149 -28 -3 c-21 -2 -28 -9 -30 -29
-2 -17 -11 -29 -23 -32 -17 -5 -20 -12 -17 -49 l3 -43 455 0 455 0 3 43 c3 37
0 44 -17 49 -12 3 -21 15 -23 32 -2 20 -9 27 -30 29 l-28 3 0 149 c0 88 4 151
10 155 6 3 10 17 10 30 0 18 6 24 28 27 25 3 27 6 27 47 l0 45 -215 113 c-118
62 -217 113 -220 113 -3 0 -102 -51 -220 -113z m426 -38 c114 -59 194 -106
194 -115 0 -12 -61 -14 -400 -14 -339 0 -400 2 -400 14 0 14 371 215 398 216
8 0 101 -45 208 -101z m-386 -193 c0 -14 5 -28 10 -31 6 -4 10 -67 10 -156 l0
-149 -40 0 -40 0 0 149 c0 89 4 152 10 156 6 3 10 17 10 31 0 17 5 24 20 24
15 0 20 -7 20 -24z m200 0 c0 -14 5 -28 10 -31 6 -4 10 -67 10 -156 l0 -149
-40 0 -40 0 0 149 c0 89 4 152 10 156 6 3 10 17 10 31 0 17 5 24 20 24 15 0
20 -7 20 -24z m200 0 c0 -14 5 -28 10 -31 6 -4 10 -67 10 -156 l0 -149 -40 0
-40 0 0 149 c0 89 4 152 10 156 6 3 10 17 10 31 0 17 5 24 20 24 15 0 20 -7
20 -24z m160 -402 c0 -17 6 -28 20 -31 67 -18 -24 -23 -400 -23 -376 0 -467 5
-400 23 14 3 20 14 20 31 l0 26 380 0 380 0 0 -26z"/>
<path d="M445 795 c-16 -15 -25 -36 -25 -55 0 -19 9 -40 25 -55 49 -50 135
-15 135 55 0 41 -39 80 -80 80 -19 0 -40 -9 -55 -25z"/>
</g>
</svg>
