<?xml version="1.0" standalone="no"?>
<!DOCTYPE svg PUBLIC "-//W3C//DTD SVG 20010904//EN"
 "http://www.w3.org/TR/2001/REC-SVG-20010904/DTD/svg10.dtd">
<svg version="1.0" xmlns="http://www.w3.org/2000/svg"
 width="100.000000pt" height="100.000000pt" viewBox="0 0 100.000000 100.000000"
 preserveAspectRatio="xMidYMid meet">
<metadata>
Created by potrace 1.13, written by Peter Selinger 2001-2015
</metadata>
<g transform="translate(0.000000,100.000000) scale(0.100000,-0.100000)"
fill="#000000" stroke="none">
<path d="M192 988 c-7 -7 -12 -25 -12 -40 l0 -28 -78 0 c-47 0 -83 -5 -90 -12
-17 -17 -17 -879 0 -896 17 -17 959 -17 976 0 17 17 17 879 0 896 -7 7 -43 12
-90 12 l-78 0 0 28 c0 37 -17 52 -60 52 -43 0 -60 -15 -60 -52 l0 -28 -200 0
-200 0 0 28 c0 15 -5 33 -12 40 -16 16 -80 16 -96 0z m-12 -136 c0 -37 17 -52
60 -52 43 0 60 15 60 52 l0 28 200 0 200 0 0 -28 c0 -37 17 -52 60 -52 43 0
60 15 60 52 0 28 0 28 70 28 l70 0 0 -80 0 -80 -460 0 -460 0 0 80 0 80 70 0
c70 0 70 0 70 -28z m780 -492 l0 -320 -460 0 -460 0 0 320 0 320 460 0 460 0
0 -320z"/>
<path d="M565 409 l-86 -131 -55 51 c-59 54 -68 58 -80 39 -10 -16 136 -152
149 -139 5 5 51 74 102 153 86 133 96 157 62 158 -4 0 -46 -59 -92 -131z"/>
</g>
</svg>
