<?xml version="1.0" standalone="no"?>
<!DOCTYPE svg PUBLIC "-//W3C//DTD SVG 20010904//EN"
 "http://www.w3.org/TR/2001/REC-SVG-20010904/DTD/svg10.dtd">
<svg version="1.0" xmlns="http://www.w3.org/2000/svg"
 width="100.000000pt" height="100.000000pt" viewBox="0 0 100.000000 100.000000"
 preserveAspectRatio="xMidYMid meet">
<metadata>
Created by potrace 1.13, written by Peter Selinger 2001-2015
</metadata>
<g transform="translate(0.000000,100.000000) scale(0.100000,-0.100000)"
fill="#000000" stroke="none">
<path d="M14 979 c-3 -6 26 -43 67 -85 l73 -74 -67 0 c-60 0 -67 -2 -67 -20 0
-19 7 -20 100 -20 l100 0 0 100 c0 93 -1 100 -20 100 -18 0 -20 -7 -20 -67 l0
-67 -73 72 c-40 39 -75 72 -79 72 -4 0 -10 -5 -14 -11z"/>
<path d="M892 918 l-72 -73 0 68 c0 60 -2 67 -20 67 -19 0 -20 -7 -20 -100 l0
-100 100 0 c93 0 100 1 100 20 0 18 -7 20 -67 20 l-67 0 73 74 c63 64 81 96
53 96 -4 0 -40 -33 -80 -72z"/>
<path d="M451 806 c-87 -48 -50 -186 49 -186 51 0 100 49 100 99 0 74 -84 123
-149 87z"/>
<path d="M251 686 c-28 -16 -50 -52 -51 -84 0 -33 26 -80 50 -87 27 -8 18 -21
-20 -29 -17 -3 -45 -19 -61 -35 -24 -25 -29 -37 -29 -81 l0 -51 88 3 c69 2 87
6 87 18 0 12 -16 16 -68 18 -67 3 -68 3 -65 29 5 45 49 68 129 67 60 0 69 2
69 18 0 11 -7 18 -19 18 -28 0 -35 17 -11 25 23 7 50 53 50 84 0 74 -84 123
-149 87z"/>
<path d="M651 686 c-28 -16 -50 -52 -51 -84 0 -33 26 -80 50 -87 24 -8 17 -25
-11 -25 -10 0 -19 -4 -19 -10 0 -5 0 -13 0 -17 0 -5 31 -8 69 -8 80 0 124 -23
129 -68 3 -26 2 -26 -65 -29 -52 -2 -68 -6 -68 -18 0 -12 18 -16 88 -18 l87
-3 0 51 c0 44 -5 56 -29 81 -16 16 -44 32 -61 35 -38 8 -47 21 -20 29 23 7 50
53 50 84 0 74 -84 123 -149 87z"/>
<path d="M451 586 c-28 -16 -50 -52 -51 -84 0 -33 26 -80 50 -87 27 -8 18 -21
-20 -29 -17 -3 -45 -19 -61 -35 -24 -25 -29 -37 -29 -80 l0 -51 160 0 160 0 0
51 c0 43 -5 55 -29 80 -16 16 -44 32 -61 35 -38 8 -47 21 -20 29 23 7 50 53
50 84 0 74 -84 123 -149 87z m137 -253 c15 -11 28 -32 30 -46 l3 -27 -120 0
c-120 0 -121 0 -121 23 0 68 140 101 208 50z"/>
<path d="M20 200 c0 -18 7 -20 67 -20 l67 0 -74 -75 c-59 -59 -72 -77 -62 -87
10 -10 28 3 87 62 l75 74 0 -67 c0 -60 2 -67 20 -67 19 0 20 7 20 100 l0 100
-100 0 c-93 0 -100 -1 -100 -20z"/>
<path d="M780 120 c0 -93 1 -100 20 -100 18 0 20 7 20 67 l0 67 75 -74 c59
-59 77 -72 87 -62 10 10 -3 28 -62 87 l-74 75 67 0 c60 0 67 2 67 20 0 19 -7
20 -100 20 l-100 0 0 -100z"/>
</g>
</svg>
