<?xml version="1.0" standalone="no"?>
<!DOCTYPE svg PUBLIC "-//W3C//DTD SVG 20010904//EN"
 "http://www.w3.org/TR/2001/REC-SVG-20010904/DTD/svg10.dtd">
<svg version="1.0" xmlns="http://www.w3.org/2000/svg"
 width="100.000000pt" height="100.000000pt" viewBox="0 0 100.000000 100.000000"
 preserveAspectRatio="xMidYMid meet">
<metadata>
Created by potrace 1.13, written by Peter Selinger 2001-2015
</metadata>
<g transform="translate(0.000000,100.000000) scale(0.100000,-0.100000)"
fill="#000000" stroke="none">
<path d="M305 911 c-83 -38 -116 -111 -99 -217 6 -36 6 -69 0 -85 -6 -18 -4
-34 7 -55 59 -110 68 -135 65 -176 -3 -47 8 -38 -142 -110 -82 -39 -125 -87
-133 -147 l-6 -41 309 2 c267 3 309 5 309 18 0 13 -39 15 -282 18 -314 3 -309
1 -252 66 20 23 57 46 110 67 96 40 127 69 135 130 5 38 2 51 -20 83 -14 21
-26 49 -26 62 0 14 -6 24 -14 24 -18 0 -28 38 -16 61 6 11 6 38 -1 74 -23 127
29 205 140 205 46 0 133 -41 156 -73 17 -24 19 -91 5 -151 -5 -23 -5 -47 0
-56 12 -22 1 -60 -16 -60 -8 0 -14 -10 -14 -22 0 -13 -9 -38 -20 -56 -13 -22
-20 -50 -20 -85 0 -68 23 -91 140 -141 95 -40 110 -43 110 -22 0 14 -93 64
-146 80 -11 3 -30 15 -42 27 -38 35 -27 91 45 223 12 22 13 37 6 55 -5 14 -6
37 -2 51 4 14 7 52 8 85 1 81 -20 114 -99 154 -71 36 -134 40 -195 12z"/>
<path d="M789 234 c-109 -108 -129 -133 -139 -172 -14 -57 -5 -66 52 -52 39
10 64 30 172 139 132 134 143 154 106 191 -37 37 -57 26 -191 -106z"/>
</g>
</svg>
