<?xml version="1.0" standalone="no"?>
<!DOCTYPE svg PUBLIC "-//W3C//DTD SVG 20010904//EN"
 "http://www.w3.org/TR/2001/REC-SVG-20010904/DTD/svg10.dtd">
<svg version="1.0" xmlns="http://www.w3.org/2000/svg"
 width="96.000000pt" height="96.000000pt" viewBox="0 0 96.000000 96.000000"
 preserveAspectRatio="xMidYMid meet">
<metadata>
Created by potrace 1.13, written by Peter Selinger 2001-2015
</metadata>
<g transform="translate(0.000000,96.000000) scale(0.100000,-0.100000)"
fill="#000000" stroke="none">
<path d="M450 841 c0 -24 -8 -32 -47 -53 -77 -39 -114 -113 -98 -195 10 -54
65 -101 163 -141 102 -42 137 -78 129 -136 -4 -26 -16 -50 -36 -70 -27 -26
-39 -31 -81 -31 -42 0 -54 5 -81 31 -21 21 -32 44 -36 72 -5 38 -8 42 -34 42
-26 0 -29 -3 -29 -32 0 -39 30 -106 56 -130 11 -10 36 -24 57 -33 31 -13 37
-20 37 -45 0 -27 3 -30 30 -30 26 0 30 3 30 29 0 24 7 32 47 52 75 37 114 113
99 193 -11 57 -43 86 -152 137 -120 56 -148 85 -141 143 4 26 16 50 36 70 27
26 39 31 81 31 42 0 54 -5 81 -31 21 -21 32 -44 36 -72 5 -38 8 -42 34 -42 26
0 29 3 29 33 -1 70 -52 139 -124 167 -20 7 -26 16 -26 40 0 27 -3 30 -30 30
-26 0 -30 -3 -30 -29z"/>
</g>
</svg>
