<?xml version="1.0" standalone="no"?>
<!DOCTYPE svg PUBLIC "-//W3C//DTD SVG 20010904//EN"
 "http://www.w3.org/TR/2001/REC-SVG-20010904/DTD/svg10.dtd">
<svg version="1.0" xmlns="http://www.w3.org/2000/svg"
 width="100.000000pt" height="100.000000pt" viewBox="0 0 100.000000 100.000000"
 preserveAspectRatio="xMidYMid meet">
<metadata>
Created by potrace 1.13, written by Peter Selinger 2001-2015
</metadata>
<g transform="translate(0.000000,100.000000) scale(0.100000,-0.100000)"
fill="#000000" stroke="none">
<path d="M295 951 c-11 -5 -31 -21 -45 -36 -35 -37 -35 -112 -2 -148 l24 -25
-24 -13 c-12 -7 -43 -13 -68 -13 -126 -2 -184 -138 -98 -232 19 -21 18 -21
-16 -47 -46 -36 -68 -95 -64 -177 3 -60 5 -66 32 -79 37 -18 188 -26 243 -13
l42 10 3 -52 c4 -71 26 -81 178 -81 152 0 174 10 178 81 l3 52 42 -10 c55 -13
206 -5 243 13 27 13 29 19 32 79 4 82 -18 141 -64 177 -34 26 -35 26 -16 47
47 51 55 110 22 163 -28 47 -66 67 -127 69 -29 1 -59 7 -68 14 -13 11 -12 15
4 37 45 56 30 135 -31 173 -109 66 -226 -56 -159 -166 l19 -32 -30 -28 c-16
-16 -34 -40 -40 -54 l-10 -25 -13 31 c-7 17 -25 41 -41 53 -24 19 -26 25 -16
39 41 58 39 120 -6 165 -31 31 -91 44 -127 28z m100 -56 c50 -49 15 -135 -55
-135 -41 0 -80 39 -80 80 0 41 39 80 80 80 19 0 40 -9 55 -25z m309 4 c20 -16
26 -29 26 -59 0 -44 -35 -80 -77 -80 -34 0 -73 42 -73 80 0 38 39 80 73 80 13
0 36 -9 51 -21z m-283 -216 c16 -15 31 -41 34 -58 5 -26 2 -32 -24 -47 -80
-44 -93 -144 -29 -214 19 -22 19 -22 -9 -42 l-29 -21 -13 47 c-8 31 -25 58
-52 83 -35 32 -38 38 -24 49 49 41 58 118 20 174 -30 45 -30 44 -2 56 38 17
97 4 128 -27z m282 26 c12 -7 23 -13 25 -14 2 -2 -8 -20 -23 -40 -38 -57 -30
-134 20 -175 14 -11 11 -17 -24 -49 -27 -25 -44 -52 -52 -83 l-13 -47 -29 21
c-28 20 -28 20 -9 42 64 70 51 169 -28 214 -33 19 -37 39 -15 82 27 52 98 75
148 49z m-474 -43 c47 -25 63 -83 37 -135 -35 -66 -137 -66 -172 0 -47 91 44
182 135 135z m640 0 c47 -25 63 -83 37 -135 -35 -66 -137 -66 -172 0 -23 45
-17 78 20 115 37 37 70 43 115 20z m-320 -120 c67 -35 65 -143 -4 -174 -51
-23 -107 -7 -131 39 -47 91 44 182 135 135z m-290 -133 c38 -28 61 -81 61
-140 0 -52 0 -52 -37 -62 -49 -14 -157 -14 -207 0 l-38 11 4 64 c5 73 25 109
79 137 41 22 100 17 138 -10z m640 0 c38 -28 61 -81 61 -140 0 -52 0 -52 -37
-62 -49 -14 -157 -14 -207 0 l-38 11 4 64 c5 73 25 109 79 137 41 22 100 17
138 -10z m-320 -120 c38 -28 61 -81 61 -140 0 -52 0 -52 -37 -62 -49 -14 -157
-14 -207 0 l-38 11 4 64 c5 73 25 109 79 137 41 22 100 17 138 -10z"/>
</g>
</svg>
