<?xml version="1.0" standalone="no"?>
<!DOCTYPE svg PUBLIC "-//W3C//DTD SVG 20010904//EN"
 "http://www.w3.org/TR/2001/REC-SVG-20010904/DTD/svg10.dtd">
<svg version="1.0" xmlns="http://www.w3.org/2000/svg"
 width="100.000000pt" height="100.000000pt" viewBox="0 0 100.000000 100.000000"
 preserveAspectRatio="xMidYMid meet">
<metadata>
Created by potrace 1.13, written by Peter Selinger 2001-2015
</metadata>
<g transform="translate(0.000000,100.000000) scale(0.100000,-0.100000)"
fill="#000000" stroke="none">
<path d="M100 820 l0 -80 80 0 80 0 0 80 0 80 -80 0 -80 0 0 -80z"/>
<path d="M340 860 c0 -20 7 -20 270 -20 263 0 270 0 270 20 0 20 -7 20 -270
20 -263 0 -270 0 -270 -20z"/>
<path d="M340 780 c0 -19 7 -20 230 -20 223 0 230 1 230 20 0 19 -7 20 -230
20 -223 0 -230 -1 -230 -20z"/>
<path d="M100 500 l0 -80 80 0 80 0 0 80 0 80 -80 0 -80 0 0 -80z"/>
<path d="M340 540 c0 -20 7 -20 270 -20 263 0 270 0 270 20 0 20 -7 20 -270
20 -263 0 -270 0 -270 -20z"/>
<path d="M340 460 c0 -19 7 -20 230 -20 223 0 230 1 230 20 0 19 -7 20 -230
20 -223 0 -230 -1 -230 -20z"/>
<path d="M100 180 l0 -80 80 0 80 0 0 80 0 80 -80 0 -80 0 0 -80z"/>
<path d="M340 220 c0 -20 7 -20 270 -20 263 0 270 0 270 20 0 20 -7 20 -270
20 -263 0 -270 0 -270 -20z"/>
<path d="M340 140 c0 -19 7 -20 230 -20 223 0 230 1 230 20 0 19 -7 20 -230
20 -223 0 -230 -1 -230 -20z"/>
</g>
</svg>
