<?xml version="1.0" standalone="no"?>
<!DOCTYPE svg PUBLIC "-//W3C//DTD SVG 20010904//EN"
 "http://www.w3.org/TR/2001/REC-SVG-20010904/DTD/svg10.dtd">
<svg version="1.0" xmlns="http://www.w3.org/2000/svg"
 width="100.000000pt" height="100.000000pt" viewBox="0 0 100.000000 100.000000"
 preserveAspectRatio="xMidYMid meet">
<metadata>
Created by potrace 1.13, written by Peter Selinger 2001-2015
</metadata>
<g transform="translate(0.000000,100.000000) scale(0.100000,-0.100000)"
fill="#000000" stroke="none">
<path d="M780 980 c0 -18 7 -20 77 -20 l78 0 -127 -127 -128 -127 -40 39 -40
39 -120 -119 -120 -119 -40 39 -40 39 -135 -134 c-107 -106 -132 -137 -123
-148 9 -11 35 11 135 110 l123 122 40 -39 40 -39 120 119 120 119 40 -39 40
-39 140 139 140 140 0 -78 c0 -70 2 -77 20 -77 19 0 20 7 20 110 l0 110 -110
0 c-103 0 -110 -1 -110 -20z"/>
<path d="M840 360 c0 -353 0 -360 20 -360 20 0 20 7 20 360 0 353 0 360 -20
360 -20 0 -20 -7 -20 -360z"/>
<path d="M960 350 c0 -343 0 -350 20 -350 20 0 20 7 20 350 0 343 0 350 -20
350 -20 0 -20 -7 -20 -350z"/>
<path d="M600 300 c0 -293 0 -300 20 -300 20 0 20 7 20 300 0 293 0 300 -20
300 -20 0 -20 -7 -20 -300z"/>
<path d="M720 300 c0 -293 0 -300 20 -300 20 0 20 7 20 300 0 293 0 300 -20
300 -20 0 -20 -7 -20 -300z"/>
<path d="M480 260 c0 -253 1 -260 20 -260 19 0 20 7 20 260 0 253 -1 260 -20
260 -19 0 -20 -7 -20 -260z"/>
<path d="M240 220 c0 -213 1 -220 20 -220 19 0 20 7 20 220 0 213 -1 220 -20
220 -19 0 -20 -7 -20 -220z"/>
<path d="M360 200 c0 -193 1 -200 20 -200 19 0 20 7 20 200 0 193 -1 200 -20
200 -19 0 -20 -7 -20 -200z"/>
</g>
</svg>
